HIERARCHY
ROOT Hips
{
	OFFSET 0.000000 121.760803 0.000000
	CHANNELS 6 Xposition Yposition Zposition Xrotation Yrotation Zrotation 
	JOINT Spine
	{
		OFFSET 0.072000 7.257294 -0.789700
		CHANNELS 3 Xrotation Yrotation Zrotation
		JOINT Spine1
		{
			OFFSET 0.000000 12.508769 -0.658067
			CHANNELS 3 Xrotation Yrotation Zrotation
			JOINT Spine1_split
			{
				OFFSET 0.000000 12.508769 -0.658067
				CHANNELS 3 Xrotation Yrotation Zrotation
				JOINT Spine2
				{
					OFFSET 0.000000 12.508769 -0.658067
					CHANNELS 3 Xrotation Yrotation Zrotation
					JOINT Neck
					{
						OFFSET 0.000000 14.033295 7.520400
						CHANNELS 3 Xrotation Yrotation Zrotation
						JOINT Head
						{
							OFFSET 0.000000 8.198502 5.703100
							CHANNELS 3 Xrotation Yrotation Zrotation
							JOINT HeadTop_End
							{
								OFFSET 0.000000 17.760803 13.332701
								CHANNELS 3 Xrotation Yrotation Zrotation
								End Site
								{
									OFFSET 0.000000 0.000000 0.000000
								}
							}
						}
					}
					JOINT LeftShoulder
					{
						OFFSET 6.292450 5.785301 -0.669000
						CHANNELS 3 Xrotation Yrotation Zrotation
						JOINT LeftShoulder_split
						{
							OFFSET 6.292450 5.785301 -0.669000
							CHANNELS 3 Xrotation Yrotation Zrotation
							JOINT LeftArm
							{
								OFFSET 13.907140 -6.093903 1.965100
								CHANNELS 3 Xrotation Yrotation Zrotation
								JOINT LeftForeArm
								{
									OFFSET 34.140198 0.000000 0.000000
									CHANNELS 3 Xrotation Yrotation Zrotation
									JOINT LeftHand
									{
										OFFSET 40.960209 0.000000 0.000000
										CHANNELS 3 Xrotation Yrotation Zrotation
										JOINT LeftHandThumb1
										{
											OFFSET 10.006996 -7.170425 9.573125
											CHANNELS 3 Xrotation Yrotation Zrotation
											JOINT LeftHandThumb2
											{
												OFFSET 1.835007 -1.059448 1.059443
												CHANNELS 3 Xrotation Yrotation Zrotation
												JOINT LeftHandThumb3
												{
													OFFSET 2.112267 -1.219513 1.219518
													CHANNELS 3 Xrotation Yrotation Zrotation
													JOINT LeftHandThumb4
													{
														OFFSET 4.843811 -2.796570 2.796576
														CHANNELS 3 Xrotation Yrotation Zrotation
														End Site
														{
															OFFSET 0.000000 0.000000 0.000000
														}
													}
												}
											}
										}
										JOINT LeftHandIndex1
										{
											OFFSET 18.389847 -0.922348 4.596882
											CHANNELS 3 Xrotation Yrotation Zrotation
											JOINT LeftHandIndex2
											{
												OFFSET 4.711273 0.000000 0.000000
												CHANNELS 3 Xrotation Yrotation Zrotation
												JOINT LeftHandIndex3
												{
													OFFSET 2.886131 0.000000 0.000000
													CHANNELS 3 Xrotation Yrotation Zrotation
													JOINT LeftHandIndex4
													{
														OFFSET 6.145912 0.000000 0.000000
														CHANNELS 3 Xrotation Yrotation Zrotation
														End Site
														{
															OFFSET 0.000000 0.000000 0.000000
														}
													}
												}
											}
										}
										JOINT LeftHandMiddle1
										{
											OFFSET 18.013008 0.000000 0.000000
											CHANNELS 3 Xrotation Yrotation Zrotation
											JOINT LeftHandMiddle2
											{
												OFFSET 4.946693 0.000000 0.000000
												CHANNELS 3 Xrotation Yrotation Zrotation
												JOINT LeftHandMiddle3
												{
													OFFSET 3.342232 0.000000 0.000000
													CHANNELS 3 Xrotation Yrotation Zrotation
													JOINT LeftHandMiddle4
													{
														OFFSET 4.461754 0.000000 0.000000
														CHANNELS 3 Xrotation Yrotation Zrotation
														End Site
														{
															OFFSET 0.000000 0.000000 0.000000
														}
													}
												}
											}
										}
										JOINT LeftHandRing1
										{
											OFFSET 15.849892 -0.102921 -4.126150
											CHANNELS 3 Xrotation Yrotation Zrotation
											JOINT LeftHandRing2
											{
												OFFSET 3.527054 0.000000 0.000000
												CHANNELS 3 Xrotation Yrotation Zrotation
												JOINT LeftHandRing3
												{
													OFFSET 2.961098 0.000000 0.000000
													CHANNELS 3 Xrotation Yrotation Zrotation
													JOINT LeftHandRing4
													{
														OFFSET 4.927200 0.000000 0.000000
														CHANNELS 3 Xrotation Yrotation Zrotation
														End Site
														{
															OFFSET 0.000000 0.000000 0.000000
														}
													}
												}
											}
										}
										JOINT LeftHandPinky1
										{
											OFFSET 12.791824 -0.832031 -6.799156
											CHANNELS 3 Xrotation Yrotation Zrotation
											JOINT LeftHandPinky2
											{
												OFFSET 3.327133 0.000000 0.000000
												CHANNELS 3 Xrotation Yrotation Zrotation
												JOINT LeftHandPinky3
												{
													OFFSET 3.014900 0.000000 0.000000
													CHANNELS 3 Xrotation Yrotation Zrotation
													JOINT LeftHandPinky4
													{
														OFFSET 5.847786 0.000000 0.000000
														CHANNELS 3 Xrotation Yrotation Zrotation
														End Site
														{
															OFFSET 0.000000 0.000000 0.000000
														}
													}
												}
											}
										}
									}
								}
							}
						}
					}
					JOINT RightShoulder
					{
						OFFSET -6.292450 5.785301 -0.669000
						CHANNELS 3 Xrotation Yrotation Zrotation
						JOINT RightShoulder_split
						{
							OFFSET -6.292450 5.785301 -0.669000
							CHANNELS 3 Xrotation Yrotation Zrotation
							JOINT RightArm
							{
								OFFSET -13.907140 -6.093903 1.965100
								CHANNELS 3 Xrotation Yrotation Zrotation
								JOINT RightForeArm
								{
									OFFSET -34.140198 0.000000 0.000000
									CHANNELS 3 Xrotation Yrotation Zrotation
									JOINT RightHand
									{
										OFFSET -40.960209 0.000000 0.000000
										CHANNELS 3 Xrotation Yrotation Zrotation
										JOINT RightHandThumb1
										{
											OFFSET -10.007050 -7.170456 9.573117
											CHANNELS 3 Xrotation Yrotation Zrotation
											JOINT RightHandThumb2
											{
												OFFSET -1.835007 -1.059448 1.059443
												CHANNELS 3 Xrotation Yrotation Zrotation
												JOINT RightHandThumb3
												{
													OFFSET -2.112267 -1.219513 1.219518
													CHANNELS 3 Xrotation Yrotation Zrotation
													JOINT RightHandThumb4
													{
														OFFSET -4.843834 -2.796585 2.796590
														CHANNELS 3 Xrotation Yrotation Zrotation
														End Site
														{
															OFFSET 0.000000 0.000000 0.000000
														}
													}
												}
											}
										}
										JOINT RightHandIndex1
										{
											OFFSET -18.389870 -0.922424 4.596786
											CHANNELS 3 Xrotation Yrotation Zrotation
											JOINT RightHandIndex2
											{
												OFFSET -4.711273 0.000000 0.000000
												CHANNELS 3 Xrotation Yrotation Zrotation
												JOINT RightHandIndex3
												{
													OFFSET -2.886131 0.000000 0.000000
													CHANNELS 3 Xrotation Yrotation Zrotation
													JOINT RightHandIndex4
													{
														OFFSET -6.145920 0.000000 0.000000
														CHANNELS 3 Xrotation Yrotation Zrotation
														End Site
														{
															OFFSET 0.000000 0.000000 0.000000
														}
													}
												}
											}
										}
										JOINT RightHandMiddle1
										{
											OFFSET -18.013008 0.000000 0.000000
											CHANNELS 3 Xrotation Yrotation Zrotation
											JOINT RightHandMiddle2
											{
												OFFSET -4.946693 0.000000 0.000000
												CHANNELS 3 Xrotation Yrotation Zrotation
												JOINT RightHandMiddle3
												{
													OFFSET -3.342232 0.000000 0.000000
													CHANNELS 3 Xrotation Yrotation Zrotation
													JOINT RightHandMiddle4
													{
														OFFSET -4.461754 0.000000 0.000000
														CHANNELS 3 Xrotation Yrotation Zrotation
														End Site
														{
															OFFSET 0.000000 0.000000 0.000000
														}
													}
												}
											}
										}
										JOINT RightHandRing1
										{
											OFFSET -15.849876 -0.102936 -4.126237
											CHANNELS 3 Xrotation Yrotation Zrotation
											JOINT RightHandRing2
											{
												OFFSET -3.527054 0.000000 0.000000
												CHANNELS 3 Xrotation Yrotation Zrotation
												JOINT RightHandRing3
												{
													OFFSET -2.961098 0.000000 0.000000
													CHANNELS 3 Xrotation Yrotation Zrotation
													JOINT RightHandRing4
													{
														OFFSET -4.927200 0.000000 0.000000
														CHANNELS 3 Xrotation Yrotation Zrotation
														End Site
														{
															OFFSET 0.000000 0.000000 0.000000
														}
													}
												}
											}
										}
										JOINT RightHandPinky1
										{
											OFFSET -12.791786 -0.832077 -6.799222
											CHANNELS 3 Xrotation Yrotation Zrotation
											JOINT RightHandPinky2
											{
												OFFSET -3.327133 0.000000 0.000000
												CHANNELS 3 Xrotation Yrotation Zrotation
												JOINT RightHandPinky3
												{
													OFFSET -3.014900 0.000000 0.000000
													CHANNELS 3 Xrotation Yrotation Zrotation
													JOINT RightHandPinky4
													{
														OFFSET -5.847786 0.000000 0.000000
														CHANNELS 3 Xrotation Yrotation Zrotation
														End Site
														{
															OFFSET 0.000000 0.000000 0.000000
														}
													}
												}
											}
										}
									}
								}
							}
						}
					}
				}
			}
		}
	}
	JOINT LeftUpLeg
	{
		OFFSET 13.026900 -6.336304 -1.092800
		CHANNELS 3 Xrotation Yrotation Zrotation
		JOINT LeftLeg
		{
			OFFSET 0.524474 -46.096886 9.782700
			CHANNELS 3 Xrotation Yrotation Zrotation
			JOINT LeftFoot
			{
				OFFSET -0.524474 -53.427422 -12.948200
				CHANNELS 3 Xrotation Yrotation Zrotation
				JOINT LeftToeBase
				{
					OFFSET 0.192200 -14.009700 16.364100
					CHANNELS 3 Xrotation Yrotation Zrotation
					JOINT LeftToe_End
					{
						OFFSET -1.784700 -0.561700 9.474800
						CHANNELS 3 Xrotation Yrotation Zrotation
						End Site
						{
							OFFSET 0.000000 0.000000 0.000000
						}
					}
				}
			}
		}
	}
	JOINT RightUpLeg
	{
		OFFSET -12.883000 -6.336304 -1.092800
		CHANNELS 3 Xrotation Yrotation Zrotation
		JOINT RightLeg
		{
			OFFSET -0.524587 -46.096825 9.782800
			CHANNELS 3 Xrotation Yrotation Zrotation
			JOINT RightFoot
			{
				OFFSET 0.524587 -53.427383 -12.948300
				CHANNELS 3 Xrotation Yrotation Zrotation
				JOINT RightToeBase
				{
					OFFSET -0.192200 -14.009700 16.364100
					CHANNELS 3 Xrotation Yrotation Zrotation
					JOINT RightToe_End
					{
						OFFSET 1.784700 -0.561700 9.474800
						CHANNELS 3 Xrotation Yrotation Zrotation
						End Site
						{
							OFFSET 0.000000 0.000000 0.000000
						}
					}
				}
			}
		}
	}
}
MOTION
Frames: 4
Frame Time: 0.016667
13.634129 98.587799 1.521719 9.476038 -0.570559 -10.233699 8.485394 -3.368093 -7.304166 6.795705 -2.703227 -6.539376 0.000000 0.000000 0.000000 6.822729 -2.529056 -6.561660 -6.756032 -0.095607 -6.250960 -31.736764 -12.121329 11.385207 0.000000 -0.000000 0.000003 0.657402 -5.474602 -9.273254 0.000000 0.000000 0.000000 -31.650875 6.573777 -19.060515 0.000018 -57.717270 0.000016 -13.439158 -6.592297 17.306758 -6.000713 -6.126812 4.616731 7.611095 24.884956 2.404801 -4.383190 25.960697 19.454334 0.000003 -0.000001 0.000001 2.912862 7.374265 -59.057968 2.905720 5.057893 -59.732245 2.014369 4.420870 -48.976046 0.000002 -0.000002 0.000000 2.252959 6.917803 -51.180786 3.608301 5.405534 -67.425838 1.924272 4.341079 -47.796694 -0.000001 0.000001 0.000001 3.218382 7.543748 -62.485385 3.684674 5.436516 -68.234327 3.234216 5.235084 -63.393226 0.000001 0.000001 -0.000002 3.994144 7.875999 -70.768813 2.411832 4.736405 -53.951743 3.058967 5.143945 -61.455850 0.000001 0.000001 0.000002 0.361047 -0.787757 2.746800 0.000000 0.000000 0.000000 26.141065 -12.666228 76.530815 0.000233 79.226793 -0.000201 -6.073265 16.835030 -10.845139 -7.540272 -3.885177 -4.751889 7.955429 -28.077794 -3.121259 -4.006975 -18.468394 -17.389967 0.000000 -0.000001 0.000001 0.055202 3.456511 6.528607 0.319255 -1.696228 21.316691 0.152995 -1.185123 14.711324 0.000001 0.000001 -0.000001 -0.862790 -0.131517 17.725502 0.409664 -1.911702 24.188123 0.700071 -2.457681 31.794886 -0.000000 -0.000000 -0.000001 2.184510 -6.710182 36.224175 0.531175 -2.161823 27.606166 0.891012 -2.741549 36.002832 -0.000001 0.000000 -0.000001 6.372304 -15.465765 52.716974 0.699900 -2.457408 31.790924 1.139162 -3.053617 40.908711 -0.000001 -0.000001 0.000001 -54.788916 -9.447781 27.755966 48.442167 -3.309169 -2.567239 -0.542633 2.746088 -12.465271 0.284369 0.001542 -0.322793 0.000000 0.000000 -0.000000 -43.875923 -26.680469 1.157705 52.457130 6.002995 -0.786053 -19.044046 -19.993750 -7.592900 -0.000071 -0.000002 0.000001 -0.000000 0.000002 -0.000000 
13.699802 97.929390 0.788845 9.226566 -1.645778 -9.942900 8.974110 -3.021337 -7.022290 7.111670 -2.571601 -6.414003 0.000000 0.000000 0.000000 7.134273 -2.411999 -6.415069 -6.827574 -0.078841 -6.203638 -31.801484 -11.665231 10.997510 0.000000 -0.000000 -0.000001 0.636248 -5.572581 -9.846495 0.000000 0.000000 0.000000 -30.413091 9.620330 -20.356757 -0.000006 -56.737012 -0.000023 -14.343203 -6.360676 17.068882 -6.000712 -6.126813 4.616732 7.611093 24.884958 2.404802 -4.383191 25.960697 19.454336 -0.000002 0.000001 -0.000003 2.751048 7.274448 -57.192866 2.743418 4.960000 -57.873607 1.873409 4.294514 -47.120867 0.000002 0.000002 0.000002 2.121143 6.809311 -49.506205 3.475103 5.348475 -66.004605 1.905571 4.324072 -47.548925 -0.000002 0.000002 0.000001 3.090077 7.475468 -61.059822 3.661132 5.427122 -67.985729 3.289400 5.262248 -63.996400 -0.000000 0.000004 0.000001 3.970094 7.867627 -70.519203 2.461737 4.772218 -54.554002 3.157302 5.196011 -62.547000 -0.000000 0.000000 0.000000 0.435995 -0.154701 3.207689 0.000000 0.000000 0.000000 23.731605 -11.004979 75.385296 0.000068 77.036310 -0.000039 -6.027867 16.951324 -10.577477 -7.540275 -3.885177 -4.751888 7.955427 -28.077798 -3.121261 -4.006975 -18.468393 -17.389969 0.000000 0.000001 0.000000 0.053063 3.449691 6.560504 0.320773 -1.700122 21.368018 0.154054 -1.189170 14.762581 -0.000001 -0.000001 0.000000 -0.863773 -0.045901 17.352804 0.369550 -1.819837 22.956450 0.625859 -2.333819 30.019552 0.000002 0.000001 0.000001 2.141054 -6.687476 35.625840 0.466194 -2.032807 25.830599 0.788274 -2.594445 33.796005 0.000002 -0.000002 -0.000003 6.464554 -15.829385 52.143546 0.608260 -2.303131 29.584708 1.008132 -2.895699 38.384143 0.000000 -0.000001 -0.000002 -55.096885 -9.865464 28.029119 49.458974 -2.618909 -2.603468 -0.586377 2.757605 -12.593429 0.215637 0.000884 -0.245752 0.000000 0.000001 -0.000000 -45.013904 -25.777170 1.384928 53.502152 6.047857 -0.794454 -18.830584 -20.170348 -7.829138 0.000019 -0.000007 0.000001 -0.000000 -0.000003 0.000000 
13.754957 97.422890 0.404825 8.950817 -3.035710 -9.652878 9.423101 -2.665682 -6.729518 7.403572 -2.428326 -6.253430 0.000000 0.000000 0.000000 7.422362 -2.272615 -6.260117 -6.781099 -0.061879 -6.124016 -31.448192 -11.031243 10.615891 -0.000001 -0.000000 -0.000001 0.598239 -5.646890 -10.458248 0.000000 0.000000 0.000000 -29.130067 12.344775 -22.295081 0.000027 -55.646962 0.000027 -14.802866 -6.104345 16.567027 -6.000714 -6.126815 4.616737 7.611093 24.884956 2.404804 -4.383193 25.960694 19.454341 0.000001 0.000001 -0.000003 2.566457 7.151422 -55.016621 2.558150 4.839150 -55.704714 1.714166 4.141355 -44.956087 -0.000004 -0.000001 -0.000001 1.968723 6.675453 -47.516260 3.314507 5.274362 -64.269806 1.852170 4.274752 -46.836697 0.000002 -0.000002 -0.000002 2.935865 7.387863 -59.319968 3.593726 5.399477 -67.271162 3.297918 5.266372 -64.089311 -0.000000 -0.000000 0.000001 3.901189 7.843003 -69.801521 2.469466 4.777682 -54.646766 3.232716 5.234336 -63.376745 -0.000001 0.000001 0.000001 0.490288 0.533999 3.685334 0.000000 0.000000 0.000000 21.315671 -9.569343 74.194310 0.000003 75.301347 0.000020 -5.901947 17.065877 -10.420033 -7.540275 -3.885179 -4.751892 7.955426 -28.077793 -3.121260 -4.006975 -18.468394 -17.389964 0.000001 -0.000000 0.000000 0.047259 3.429593 6.654573 0.325282 -1.711592 21.519447 0.157214 -1.201065 14.913781 0.000000 -0.000001 0.000001 -0.863929 -0.016320 17.224363 0.341045 -1.751016 22.041114 0.565507 -2.226214 28.502835 -0.000001 -0.000000 -0.000000 2.108117 -6.669266 35.181215 0.413870 -1.921018 24.313650 0.699882 -2.457381 31.790689 -0.000001 -0.000000 -0.000001 6.538803 -16.144228 51.652349 0.530188 -2.159936 27.579942 0.891063 -2.741625 36.003932 -0.000000 0.000003 0.000002 -54.904073 -10.268856 28.572737 50.441767 -1.485539 -2.647114 -0.853433 2.798715 -12.967924 0.154764 0.000458 -0.177358 0.000000 0.000000 -0.000000 -45.693166 -25.063866 1.780013 54.305383 6.428691 -0.808703 -18.723837 -20.178535 -8.194514 -0.000088 -0.000003 0.000003 0.000000 0.000000 -0.000000 
13.770063 96.966515 0.094587 8.754034 -4.143113 -9.413136 9.792020 -2.371199 -6.489619 7.641413 -2.286364 -6.122385 0.000000 0.000000 0.000000 7.656630 -2.105088 -6.121632 -6.723335 -0.048805 -5.995123 -31.190049 -10.624256 10.322445 -0.000001 -0.000001 0.000001 0.557986 -5.698680 -11.061480 0.000000 0.000000 0.000000 -27.972072 14.186042 -24.353226 -0.000002 -54.075134 -0.000003 -14.800742 -5.737579 15.942807 -6.000713 -6.126814 4.616737 7.611096 24.884958 2.404800 -4.383190 25.960694 19.454337 0.000002 -0.000001 -0.000000 2.366253 7.006018 -52.589287 2.357027 4.696166 -53.285352 1.543507 3.963501 -42.541365 -0.000001 0.000000 -0.000001 1.801738 6.517421 -45.261311 3.131663 5.182659 -62.263574 1.768713 4.195144 -45.706584 -0.000003 -0.000001 0.000002 2.760942 7.280759 -57.308074 3.487473 5.353938 -66.137254 3.275151 5.255303 -63.840877 0.000001 -0.000002 0.000001 3.792476 7.802156 -68.662799 2.448838 4.763034 -54.398717 3.280964 5.258137 -63.904356 0.000003 -0.000002 0.000001 0.544755 1.131276 4.238606 0.000000 0.000000 0.000000 19.483437 -8.250653 73.006635 0.000062 73.739023 -0.000047 -5.737840 17.098183 -10.273462 -7.540274 -3.885178 -4.751892 7.955425 -28.077798 -3.121267 -4.006976 -18.468396 -17.389967 0.000000 -0.000000 0.000000 0.037147 3.396653 6.808485 0.332725 -1.730321 21.767169 0.162436 -1.220513 15.161152 -0.000000 -0.000001 0.000000 -0.864001 -0.023503 17.257065 0.323836 -1.707924 21.470894 0.518696 -2.137808 27.273405 0.000000 0.000001 0.000001 2.087605 -6.657670 34.904206 0.373623 -1.829396 23.084007 0.625683 -2.333526 30.015434 -0.000002 0.000001 0.000003 6.595912 -16.402342 51.253261 0.465286 -2.030948 25.805160 0.788308 -2.594486 33.796732 -0.000001 0.000000 0.000001 -54.930512 -10.550172 28.920257 51.429764 -0.563372 -2.672558 -1.118084 2.793588 -12.951449 0.110384 0.000239 -0.128024 -0.000000 0.000000 0.000000 -46.311428 -24.329031 2.175042 55.021873 6.548406 -0.821151 -18.649280 -20.216525 -8.402724 0.000062 -0.000002 0.000002 0.000000 -0.000002 -0.000000 
